<?xml version="1.0" encoding="utf-8"?>
<!-- Generator: Adobe Illustrator 25.2.1, SVG Export Plug-In . SVG Version: 6.00 Build 0)  -->
<svg version="1.1" xmlns="http://www.w3.org/2000/svg" xmlns:xlink="http://www.w3.org/1999/xlink" x="0px" y="0px"
	 viewBox="0 0 1000 1000" style="enable-background:new 0 0 1000 1000;" xml:space="preserve">
<style type="text/css">
	.st0{fill:#DBDBDB;stroke:#000000;stroke-miterlimit:10;}
	.st1{fill:#FFFFFF;stroke:#000000;stroke-miterlimit:10;}
	.st2{fill:#FFFFFF;stroke:#7F7F7F;stroke-miterlimit:10;}
	.st3{fill:#EFEFEF;stroke:#000000;stroke-miterlimit:10;}
	.st4{fill:none;stroke:#000000;stroke-miterlimit:10;}
</style>
<g id="háttér">
	<polygon class="st0" points="38.8,446.8 38.8,517 549.8,517 549.8,566.7 607.6,566.7 607.6,517 764.4,517 764.4,541.7 784.5,541.7 
		784.5,517 967.5,517 967.5,467 607.6,467 607.6,413.6 527.1,413.6 527.1,446.9 274.1,446.9 274.1,389.2 188.4,389.2 188.4,446.9 	
		"/>
	<polyline class="st0" points="665.5,504 607.6,504 607.6,477.1 	"/>
</g>
<g id="termek">
	<rect id="F014_x3B_Vas_raktár" x="38.8" y="446.8" class="st1" width="63" height="20.2"/>
	<rect id="F015_x3B_Anyag_vizsgáló" x="38.8" y="467" class="st1" width="75.6" height="50"/>
	<rect id="F016_x3B_o.t." x="114.3" y="467" class="st1" width="63.8" height="50"/>
	<rect id="F017_x3B_Öltöző" x="178.1" y="467" class="st1" width="25.3" height="50"/>
	<rect id="F018_x3B_Képlékeny_átalakító" x="203.5" y="467" class="st1" width="22.9" height="50"/>
	<rect id="F019_x3B_Karbantartó_műhely" x="226.4" y="467" class="st1" width="22.9" height="50"/>
	<rect id="F020_x2C__F021_x3B_Gépműhely" x="249.3" y="467" class="st1" width="169.2" height="50"/>
	<g id="F022_x3B_szerelő_műhely">
		<polygon id="F022_x3B_szerelő_műhely_1_" class="st1" points="464.2,517 418.5,517 418.5,467 448.8,467 464.2,467 		"/>
		<line class="st2" x1="448.8" y1="467" x2="448.8" y2="517"/>
	</g>
	<rect id="F023_x3B_t.sz." x="464.2" y="467" class="st1" width="15.1" height="50"/>
	<rect id="F024_x3B_Szaktanterem" x="479.3" y="467" class="st1" width="106" height="50"/>
	<rect id="F.WC_1_" x="203.5" y="426.8" class="st1" width="35.5" height="20.1"/>
	<g id="F012">
		<polygon id="F012_x3B_t.sz." class="st1" points="274.1,426.8 274.1,389.2 254.1,389.2 239,389.2 239,426.8 239,446.9 
			274.1,446.9 		"/>
		<polygon class="st2" points="254.1,389.2 254.1,426.7 274.2,426.8 239,426.8 254.1,426.7 		"/>
	</g>
	<rect id="Hőközpont" x="203.5" y="389.2" class="st1" width="35.5" height="37.5"/>
	<rect id="Bejárat" x="549.8" y="517" class="st1" width="12.5" height="19.5"/>
	<rect id="Porta" x="549.8" y="536.5" class="st1" width="12.5" height="17.5"/>
	<g>
		<polygon class="st1" points="580.1,566.7 549.8,566.7 549.8,554.1 567.4,554.1 580.1,554.1 		"/>
		<line class="st1" x1="567.4" y1="554.1" x2="567.4" y2="566.7"/>
	</g>
	<rect id="Büfé" x="580.1" y="554.1" class="st1" width="27.5" height="12.6"/>
	<g>
		<rect x="527.1" y="413.6" class="st1" width="42.8" height="33.3"/>
		<rect id="F.WC" x="527.1" y="413.6" class="st1" width="30.3" height="33.3"/>
		<rect id="Tan._WC" x="557.4" y="413.6" class="st1" width="12.5" height="19.9"/>
	</g>
	<rect id="F010_x2C__F009_x3B_Múzeum" x="665.5" y="467" class="st1" width="108.9" height="37"/>
	<rect id="F008_x3B_Diák_öltöző" x="774.3" y="467" class="st1" width="22.7" height="37"/>
	<rect id="F007_x3B_Diák_öltöző" x="797.1" y="467" class="st1" width="22.7" height="37"/>
	<rect id="F006_x3B_régi_képl._átal." x="819.8" y="467" class="st1" width="22.5" height="37"/>
	<rect id="F005_x3B_Vas_raktár" x="842.2" y="467" class="st1" width="55.1" height="37"/>
	<rect id="F004_x3B_Hőcserélő" x="897.3" y="467" class="st1" width="29.9" height="37"/>
	<rect id="F003_x3B_Takarítók" x="927.2" y="467" class="st1" width="40.3" height="37"/>
	<rect id="F002" x="952.3" y="504" class="st1" width="15.2" height="13"/>
	<rect id="N.WC" x="764.4" y="517" class="st1" width="20.1" height="24.7"/>
</g>
<g id="lépcsők">
	<g>
		<rect x="188.4" y="389.2" class="st3" width="15.1" height="37.5"/>
		<g>
			<polyline class="st4" points="201.7,403.7 198.8,403.7 198.8,406.6 196,406.6 196,409.4 193.1,409.4 193.1,412.3 190.2,412.3 			
				"/>
			<polygon class="st4" points="199.1,409 200.5,409 200.5,410.3 199.8,409.7 197.3,412.2 199.8,409.7 			"/>
		</g>
	</g>
	<g>
		<polygon class="st3" points="569.9,413.6 607.6,413.6 607.6,439.2 592.5,439.2 592.5,428.7 569.9,428.7 		"/>
		<g>
			<polyline class="st4" points="605.6,420.1 602.8,420.1 602.8,423 599.9,423 599.9,425.9 597,425.9 597,428.7 594.2,428.7 			"/>
			<polygon class="st4" points="603.1,425.4 604.4,425.4 604.4,426.8 603.7,426.1 601.2,428.6 603.7,426.1 			"/>
		</g>
	</g>
</g>
</svg>
