<?xml version="1.0" encoding="utf-8"?>
<!-- Generator: Adobe Illustrator 25.2.1, SVG Export Plug-In . SVG Version: 6.00 Build 0)  -->
<svg version="1.1" xmlns="http://www.w3.org/2000/svg" xmlns:xlink="http://www.w3.org/1999/xlink" x="0px" y="0px"
	 viewBox="0 0 1000 1000" style="enable-background:new 0 0 1000 1000;" xml:space="preserve">
<g>
	<polygon style="fill:#DBDBDB;stroke:#000000;stroke-miterlimit:10;" points="206.66,387.3 206.66,502.36 778.96,502.36 
		778.96,532.57 851.98,532.57 851.98,502.36 1114.79,502.36 1114.79,611.98 1169.34,611.98 1169.34,441.55 607.72,441.55 
		607.72,386.94 583.13,386.94 583.13,320.15 565.43,320.15 565.43,192.23 736.7,192.23 736.7,380.4 815.72,380.4 815.72,192.23 
		830.91,192.23 830.91,173.84 821.6,173.84 821.6,125.51 565.43,125.51 565.43,119.72 504.62,119.72 504.62,161.72 498.45,161.72 
		498.45,192.23 504.62,192.23 504.62,405.17 546.91,405.17 546.91,441.55 500,441.55 500,423.36 279.2,423.36 279.2,387.3 	"/>
	<polygon style="fill:#DBDBDB;stroke:#000000;stroke-miterlimit:10;" points="1072.32,216.06 1126.62,216.06 1169.6,216.06 
		1169.6,149.51 1035.64,149.51 1035.64,191.72 1072.32,191.72 	"/>
</g>
<g id="termek">
	
		<rect id="Nagy_tanári_szoba" x="625.89" y="441.55" style="fill:#FFFFFF;stroke:#000000;stroke-miterlimit:10;" width="122.77" height="42.09"/>
	
		<rect id="F211_x3B_o.t." x="559.13" y="466.02" style="fill:#FFFFFF;stroke:#000000;stroke-miterlimit:10;" width="48.6" height="36.34"/>
	
		<rect id="F210_x3B_o.t." x="498.45" y="466.02" style="fill:#FFFFFF;stroke:#000000;stroke-miterlimit:10;" width="60.68" height="36.34"/>
	
		<rect id="F209_x3B_o.t." x="449.68" y="466.02" style="fill:#FFFFFF;stroke:#000000;stroke-miterlimit:10;" width="48.77" height="36.34"/>
	
		<rect id="F208_x3B_t.sz." x="425.04" y="466.02" style="fill:#FFFFFF;stroke:#000000;stroke-miterlimit:10;" width="24.38" height="36.34"/>
	
		<rect id="F206_x3B_K._előtér" x="425.04" y="441.64" style="fill:#FFFFFF;stroke:#000000;stroke-miterlimit:10;" width="55.02" height="24.38"/>
	
		<rect id="Könyvtár" x="279.2" y="441.64" style="fill:#FFFFFF;stroke:#000000;stroke-miterlimit:10;" width="145.84" height="60.72"/>
	<rect id="F204" x="236.91" y="460.07" style="fill:#FFFFFF;stroke:#000000;stroke-miterlimit:10;" width="42.29" height="42.29"/>
	<rect id="F203" x="206.66" y="460.07" style="fill:#FFFFFF;stroke:#000000;stroke-miterlimit:10;" width="30.25" height="42.29"/>
	<g id="Konyha">
		
			<rect id="Konyha_1_" x="206.66" y="423.77" style="fill:#FFFFFF;stroke:#000000;stroke-miterlimit:10;" width="30.25" height="17.87"/>
		<rect x="206.66" y="423.77" style="fill:#FFFFFF;stroke:#000000;stroke-miterlimit:10;" width="17.87" height="17.87"/>
		<rect x="224.53" y="423.77" style="fill:#FFFFFF;stroke:#000000;stroke-miterlimit:10;" width="12.38" height="17.87"/>
	</g>
	
		<rect id="Pénztár" x="206.66" y="387.3" style="fill:#FFFFFF;stroke:#000000;stroke-miterlimit:10;" width="30.25" height="36.47"/>
	
		<rect id="F201_x3B_o.t." x="236.91" y="387.3" style="fill:#FFFFFF;stroke:#000000;stroke-miterlimit:10;" width="42.29" height="36.47"/>
	
		<rect id="N.WC__x28_tanári_x29_" x="565.43" y="350.61" style="fill:#FFFFFF;stroke:#000000;stroke-miterlimit:10;" width="17.7" height="36.33"/>
	
		<rect id="N.WC_3_" x="565.43" y="320.15" style="fill:#FFFFFF;stroke:#000000;stroke-miterlimit:10;" width="17.7" height="30.46"/>
	
		<rect id="L110_x3B_o.t." x="565.43" y="125.51" style="fill:#FFFFFF;stroke:#000000;stroke-miterlimit:10;" width="48.33" height="48.33"/>
	
		<rect id="L109_x3B_o.t." x="613.76" y="125.51" style="fill:#FFFFFF;stroke:#000000;stroke-miterlimit:10;" width="67.79" height="48.33"/>
	
		<rect id="L108_x3B_Anal._lab." x="681.55" y="125.51" style="fill:#FFFFFF;stroke:#000000;stroke-miterlimit:10;" width="36.77" height="48.33"/>
	
		<rect id="L107_x3B_t.sz." x="718.32" y="125.51" style="fill:#FFFFFF;stroke:#000000;stroke-miterlimit:10;" width="18.38" height="48.33"/>
	
		<rect id="L106_x3B_t.sz." x="736.7" y="125.51" style="fill:#FFFFFF;stroke:#000000;stroke-miterlimit:10;" width="18.38" height="48.33"/>
	
		<rect id="L105_x3B_o.t." x="755.09" y="125.51" style="fill:#FFFFFF;stroke:#000000;stroke-miterlimit:10;" width="42.26" height="48.33"/>
	
		<rect id="L103_x3B_Medencés_labor" x="736.7" y="192.23" style="fill:#FFFFFF;stroke:#000000;stroke-miterlimit:10;" width="79.02" height="72.51"/>
	
		<rect id="H102_x3B_szaktanterem" x="1035.64" y="149.51" style="fill:#FFFFFF;stroke:#000000;stroke-miterlimit:10;" width="115.32" height="42.21"/>
	<g id="H101_x3B_rakt.">
		
			<rect id="H101_x3B_rakt._1_" x="1150.96" y="149.51" style="fill:#FFFFFF;stroke:#000000;stroke-miterlimit:10;" width="18.64" height="66.55"/>
		<rect x="1150.96" y="149.51" style="fill:#FFFFFF;stroke:#000000;stroke-miterlimit:10;" width="18.64" height="42.21"/>
		<rect x="1150.96" y="191.72" style="fill:#FFFFFF;stroke:#000000;stroke-miterlimit:10;" width="18.64" height="24.34"/>
	</g>
	
		<rect id="I102_x3B_Rajz_terem" x="736.7" y="264.74" style="fill:#FFFFFF;stroke:#000000;stroke-miterlimit:10;" width="48.13" height="91.4"/>
	
		<rect id="Csőlabor" x="784.83" y="264.74" style="fill:#FFFFFF;stroke:#000000;stroke-miterlimit:10;" width="30.89" height="54.77"/>
	
		<rect id="I101_x3B_t.sz." x="784.83" y="319.51" style="fill:#FFFFFF;stroke:#000000;stroke-miterlimit:10;" width="30.89" height="18.26"/>
	
		<rect id="N.WC_4_" x="736.7" y="356.15" style="fill:#FFFFFF;stroke:#000000;stroke-miterlimit:10;" width="24.06" height="12.13"/>
	<rect id="F.WC_3_" x="736.7" y="368.28" style="fill:#FFFFFF;stroke:#000000;stroke-miterlimit:10;" width="36" height="12.13"/>
	<rect id="Tár." x="772.7" y="368.28" style="fill:#FFFFFF;stroke:#000000;stroke-miterlimit:10;" width="12.13" height="12.13"/>
	
		<rect id="L104_x3B_Anal._rakt." x="797.34" y="125.51" style="fill:#FFFFFF;stroke:#000000;stroke-miterlimit:10;" width="24.26" height="48.33"/>
	<rect id="F.WC_2_" x="553.77" y="119.72" style="fill:#FFFFFF;stroke:#000000;stroke-miterlimit:10;" width="11.66" height="42"/>
	
		<rect id="L112_x3B_Vegyi_raktár" x="535.51" y="119.72" style="fill:#FFFFFF;stroke:#000000;stroke-miterlimit:10;" width="18.26" height="42"/>
	<rect id="N.WC_2_" x="523.38" y="119.72" style="fill:#FFFFFF;stroke:#000000;stroke-miterlimit:10;" width="12.13" height="42"/>
	<g id="L116_x3B_Műsz._labor">
		<rect x="504.62" y="386.94" style="fill:#FFFFFF;stroke:#000000;stroke-miterlimit:10;" width="42.29" height="18.23"/>
		
			<rect id="L116_x3B_Műsz._labor_1_" x="504.62" y="314.28" style="fill:#FFFFFF;stroke:#000000;stroke-miterlimit:10;" width="42.29" height="72.66"/>
	</g>
	
		<rect id="L115_x3B_Műsz._labor" x="504.62" y="222.74" style="fill:#FFFFFF;stroke:#000000;stroke-miterlimit:10;" width="42.29" height="91.53"/>
	
		<rect id="L114_x3B_Műsz._labor" x="504.62" y="192.23" style="fill:#FFFFFF;stroke:#000000;stroke-miterlimit:10;" width="42.29" height="30.51"/>
	
		<rect id="F.WC__x28_tanári_x29_" x="778.96" y="502.36" style="fill:#FFFFFF;stroke:#000000;stroke-miterlimit:10;" width="24.34" height="30.21"/>
	
		<rect id="N.WC__x28_tanári_x29__1_" x="803.3" y="502.36" style="fill:#FFFFFF;stroke:#000000;stroke-miterlimit:10;" width="24.34" height="30.21"/>
	
		<rect id="Raktár" x="827.64" y="502.36" style="fill:#FFFFFF;stroke:#000000;stroke-miterlimit:10;" width="24.34" height="30.21"/>
	<polygon id="Padlás_4." style="fill:#FFFFFF;stroke:#000000;stroke-miterlimit:10;" points="1126.83,502.36 1114.79,502.36 
		1114.79,611.98 1169.34,611.98 1169.34,483.64 1126.83,483.64 1126.83,502.33 	"/>
	<g id="titkárság">
		
			<rect id="Igazgató" x="748.66" y="441.55" style="fill:#FFFFFF;stroke:#000000;stroke-miterlimit:10;" width="30.3" height="42.09"/>
		
			<rect id="Titkárság" x="778.96" y="441.55" style="fill:#FFFFFF;stroke:#000000;stroke-miterlimit:10;" width="30.3" height="42.09"/>
		
			<rect id="Igh._1" x="809.26" y="441.55" style="fill:#FFFFFF;stroke:#000000;stroke-miterlimit:10;" width="24.34" height="42.09"/>
	</g>
	
		<rect id="F222_x3B_Igh._2" x="833.6" y="441.55" style="fill:#FFFFFF;stroke:#000000;stroke-miterlimit:10;" width="18.04" height="42.09"/>
	
		<rect id="F221_x3B_Igh._3" x="851.64" y="441.55" style="fill:#FFFFFF;stroke:#000000;stroke-miterlimit:10;" width="24.51" height="42.09"/>
	
		<rect id="F220_x3B_o.t." x="876.15" y="441.55" style="fill:#FFFFFF;stroke:#000000;stroke-miterlimit:10;" width="42.09" height="42.09"/>
	
		<rect id="F219_x3B_o.t." x="918.23" y="441.55" style="fill:#FFFFFF;stroke:#000000;stroke-miterlimit:10;" width="74" height="42.09"/>
	
		<rect id="F218_x3B_o.t." x="992.23" y="441.55" style="fill:#FFFFFF;stroke:#000000;stroke-miterlimit:10;" width="56" height="42.09"/>
	
		<rect id="F217_x3B_o.t." x="1048.23" y="441.55" style="fill:#FFFFFF;stroke:#000000;stroke-miterlimit:10;" width="66.55" height="42.09"/>
	<rect id="N.WC" x="1114.79" y="441.55" style="fill:#FFFFFF;stroke:#000000;stroke-miterlimit:10;" width="54.55" height="7.45"/>
	<rect id="F.WC" x="1114.79" y="449" style="fill:#FFFFFF;stroke:#000000;stroke-miterlimit:10;" width="18.04" height="23.19"/>
</g>
<g id="lépcsők">
	<g>
		<polyline style="fill:#EFEFEF;stroke:#000000;stroke-miterlimit:10;" points="815.72,359.09 815.72,337.77 797.38,337.77 
			797.38,349.85 803.3,349.85 803.3,359.09 		"/>
		<g>
			<polyline style="fill:none;stroke:#020203;stroke-miterlimit:10;" points="814.7,344.5 812.09,344.5 812.09,347.12 
				809.47,347.12 809.47,349.73 806.86,349.73 806.86,352.35 804.24,352.35 			"/>
			<polygon style="fill:none;stroke:#020203;stroke-miterlimit:10;" points="812.37,349.34 813.59,349.34 813.59,350.56 
				812.98,349.95 810.7,352.23 812.98,349.95 			"/>
		</g>
	</g>
	<g>
		<polygon style="fill:#EFEFEF;stroke:#000000;stroke-miterlimit:10;" points="803.3,359.09 803.3,368.28 797.38,368.28 
			797.38,380.4 815.72,380.4 815.72,359.09 		"/>
		<g>
			<polyline style="fill:none;stroke:#020203;stroke-miterlimit:10;" points="814.7,365.82 812.09,365.82 812.09,368.44 
				809.47,368.44 809.47,371.05 806.86,371.05 806.86,373.67 804.24,373.67 			"/>
			<polygon style="fill:none;stroke:#020203;stroke-miterlimit:10;" points="811.91,373.55 810.7,373.55 810.7,372.33 811.3,372.94 
				813.59,370.66 811.3,372.94 			"/>
		</g>
	</g>
	<g>
		<rect x="504.62" y="119.72" style="fill:#EFEFEF;stroke:#000000;stroke-miterlimit:10;" width="18.76" height="42"/>
		<g>
			<polyline style="fill:none;stroke:#020203;stroke-miterlimit:10;" points="519.72,136.43 516.86,136.43 516.86,139.29 
				514,139.29 514,142.15 511.14,142.15 511.14,145.01 508.28,145.01 			"/>
			<polygon style="fill:none;stroke:#020203;stroke-miterlimit:10;" points="516.67,144.89 515.34,144.89 515.34,143.56 516,144.22 
				518.5,141.72 516,144.22 			"/>
		</g>
	</g>
	<g>
		<rect x="1072.32" y="203.89" style="fill:#EFEFEF;stroke:#000000;stroke-miterlimit:10;" width="54.3" height="12.17"/>
		<g>
			<polyline style="fill:none;stroke:#020203;stroke-miterlimit:10;" points="1105.19,205.69 1102.33,205.69 1102.33,208.55 
				1099.47,208.55 1099.47,211.41 1096.61,211.41 1096.61,214.27 1093.75,214.27 			"/>
			<polygon style="fill:none;stroke:#020203;stroke-miterlimit:10;" points="1102.13,214.14 1100.81,214.14 1100.81,212.81 
				1101.47,213.48 1103.97,210.98 1101.47,213.48 			"/>
		</g>
	</g>
	<g>
		<rect x="1072.32" y="191.72" style="fill:#EFEFEF;stroke:#000000;stroke-miterlimit:10;" width="54.3" height="12.17"/>
		<g>
			<polyline style="fill:none;stroke:#020203;stroke-miterlimit:10;" points="1105.19,193.52 1102.33,193.52 1102.33,196.38 
				1099.47,196.38 1099.47,199.24 1096.61,199.24 1096.61,202.1 1093.75,202.1 			"/>
			<polygon style="fill:none;stroke:#020203;stroke-miterlimit:10;" points="1102.64,198.81 1103.97,198.81 1103.97,200.14 
				1103.31,199.48 1100.81,201.97 1103.31,199.48 			"/>
		</g>
	</g>
	<g>
		<path style="fill:#EFEFEF;stroke:#000000;stroke-miterlimit:10;" d="M1157.15,465.85V449h12.19v34.64h-24.38v-11.07h6.32
			C1151.28,472.57,1157.15,472.33,1157.15,465.85z"/>
		<g>
			<polyline style="fill:none;stroke:#020203;stroke-miterlimit:10;" points="1168.04,462.13 1165.64,462.13 1165.64,464.52 
				1163.24,464.52 1163.24,466.92 1160.85,466.92 1160.85,469.32 1158.45,469.32 			"/>
			<polygon style="fill:none;stroke:#020203;stroke-miterlimit:10;" points="1165.48,469.22 1164.37,469.22 1164.37,468.1 
				1164.92,468.66 1167.02,466.56 1164.92,468.66 			"/>
		</g>
	</g>
	<g>
		<rect x="236.91" y="423.77" style="fill:#EFEFEF;stroke:#000000;stroke-miterlimit:10;" width="24.16" height="17.87"/>
		<g>
			<polyline style="fill:none;stroke:#020203;stroke-miterlimit:10;" points="254.71,428.37 251.85,428.37 251.85,431.23 
				248.99,431.23 248.99,434.09 246.13,434.09 246.13,436.95 243.27,436.95 			"/>
			<polygon style="fill:none;stroke:#020203;stroke-miterlimit:10;" points="251.65,436.82 250.33,436.82 250.33,435.49 
				250.99,436.16 253.49,433.66 250.99,436.16 			"/>
		</g>
	</g>
	<g>
		<polyline style="fill:#EFEFEF;stroke:#000000;stroke-miterlimit:10;" points="595.38,417.26 559.13,417.26 559.13,429.38 
			595.38,429.38 595.38,441.55 546.91,441.55 546.91,405.17 595.38,405.17 595.38,417.26 595.38,429.38 		"/>
		<g>
			<polyline style="fill:none;stroke:#020203;stroke-miterlimit:10;" points="557.83,419.76 555.42,419.76 555.42,422.16 
				553.02,422.16 553.02,424.56 550.62,424.56 550.62,426.96 548.22,426.96 			"/>
			<polygon style="fill:none;stroke:#020203;stroke-miterlimit:10;" points="555.26,426.86 554.15,426.86 554.15,425.74 
				554.7,426.3 556.8,424.2 554.7,426.3 			"/>
		</g>
	</g>
</g>
</svg>
