<?xml version="1.0" encoding="utf-8"?>
<!-- Generator: Adobe Illustrator 25.2.1, SVG Export Plug-In . SVG Version: 6.00 Build 0)  -->
<svg version="1.1" xmlns="http://www.w3.org/2000/svg" xmlns:xlink="http://www.w3.org/1999/xlink" x="0px" y="0px"
	 viewBox="0 0 1000 1000" style="enable-background:new 0 0 1000 1000;" xml:space="preserve">
<style type="text/css">
	.st0{fill:#DBDBDB;stroke:#000000;stroke-miterlimit:10;}
	.st1{fill:#FFFFFF;stroke:#000000;stroke-miterlimit:10;}
	.st2{fill:none;stroke:#7F7F7F;stroke-miterlimit:10;}
	.st3{fill:#FFFFFF;stroke:#7F7F7F;stroke-miterlimit:10;}
	.st4{fill:none;stroke:#000000;stroke-miterlimit:10;}
	.st5{fill:#EFEFEF;stroke:#000000;stroke-miterlimit:10;}
	.st6{fill:#E5E4E4;stroke:#000000;stroke-miterlimit:10;}
</style>
<g id="háttér">
	<path class="st0" d="M719.4,468.7h108.41v13.1H873v-13.1h36.7v30.5h171.8v17h61.4V51.3h-24.3v30.6H932.7v77.2h135.6v-52.5h56.3
		v115.2h-36.9v227.5v6.1H848.1v-6.1v-48.8v-1.1h12.1v-74.1h12.5v-18.6h-12.5V193.3h6.3l-0.9-68.1H565.2V119h-67.3v43.2h-7.2v31h7.2
		v256.1h-85.4v-18.2h-19v18.2H283.6V378h-243v139.1h567V531h111.8V468.7z M827.81,468.6v13.1 M703.5,449.4v-24.9h-24.8V413h-71.1v-8
		h-24v-67.1h-18.5V193.3H799v256.1v6.1h-95.5V449.4L703.5,449.4z M497.8,162.3v31"/>
</g>
<g id="termek">
	<rect id="Szertár" x="40.6" y="468.6" class="st1" width="48.6" height="48.6"/>
	<rect id="F109_x3B_Testnevelés_terem" x="40.6" y="378.1" class="st1" width="145.2" height="90.5"/>
	<rect id="F110_x3B_o.t." x="89.2" y="468.6" class="st1" width="66.6" height="48.6"/>
	<rect id="F111_x3B_Kondi_terem" x="155.9" y="486.2" class="st1" width="48.9" height="31"/>
	<rect id="F112_x3B_o.t." x="204.7" y="468.6" class="st1" width="63.6" height="48.6"/>
	<rect id="N.WC_4_" x="204.7" y="419.3" class="st1" width="17.8" height="30.1"/>
	<rect id="F104" x="246.9" y="440.3" class="st1" width="19" height="9.1"/>
	<rect id="Bejárat_sportpálya_felől" x="393.4" y="431.2" class="st1" width="19" height="18.2"/>
	<rect id="N.WC_3_" x="497.8" y="427.2" class="st1" width="24.9" height="22.2"/>
	<rect id="L015_x3B_o.t." x="497.8" y="304.6" class="st1" width="49.2" height="76.9"/>
	<rect id="L014_x3B_o.t." x="497.8" y="240.9" class="st1" width="49.2" height="63.7"/>
	<rect id="L013_x3B_öltöző" x="497.8" y="193.3" class="st1" width="49.2" height="47.7"/>
	<rect id="Ak.m.WC" x="515.7" y="119" class="st1" width="11.9" height="43.2"/>
	<rect id="N.WC_2_" x="527.5" y="119" class="st1" width="18.5" height="43.2"/>
	<rect id="F.WC_4_" x="546.1" y="119" class="st1" width="19" height="43.2"/>
	<rect id="L009_x3B_Szerves_labor" x="565.2" y="125.2" class="st1" width="121.9" height="48.9"/>
	<rect id="Kapcsoló_szekrény" x="687" y="125.2" class="st1" width="24.8" height="48.9"/>
	<rect id="Előkészítő" x="711.8" y="125.2" class="st1" width="37.5" height="48.9"/>
	<rect id="Labor1_x2C__Labor2" x="749.3" y="125.2" class="st1" width="116.2" height="48.9"/>
	<g id="Orvosi_rendelő_1_">
		<rect id="Orvosi_rendelő" x="497.8" y="381.5" class="st1" width="49.2" height="45.7"/>
		<polygon class="st2" points="534.9,381.5 534.9,405 497.8,405 547,405 534.9,405 		"/>
	</g>
	<rect id="F.WC_3_" x="522.7" y="427.2" class="st1" width="24.3" height="22.2"/>
	<rect id="F135_x3B_o.t." x="607.6" y="413" class="st1" width="71.1" height="42.5"/>
	<rect id="Kazánház" x="799.1" y="388.7" class="st1" width="36.9" height="66.8"/>
	<rect id="Kazánház_előtér" x="799.1" y="370.1" class="st1" width="36.9" height="18.6"/>
	<rect id="Bejárat_tanáriparkoló_felől" x="836" y="332.4" class="st1" width="24.2" height="17.5"/>
	<rect x="860.2" y="306.6" class="st1" width="12.5" height="18.6"/>
	<rect id="Karbantartó_műhely" x="799.1" y="300.9" class="st1" width="61.1" height="31.5"/>
	<rect id="Raktár_2_" x="799.1" y="253" class="st1" width="61.1" height="47.9"/>
	<rect id="Raktár_1_" x="817.3" y="193.3" class="st1" width="42.9" height="59.7"/>
	<rect id="Raktár" x="799.1" y="229" class="st1" width="18.2" height="24"/>
	<rect id="Tanári_pihenő" x="799.1" y="193.3" class="st1" width="18.2" height="35.7"/>
	<g id="F134_x3B_t.sz.">
		<rect id="F134_x3B_t.sz._1_" x="678.7" y="424.5" class="st1" width="24.8" height="30.9"/>
		<line class="st2" x1="694.3" y1="424.5" x2="694.3" y2="455.5"/>
	</g>
	<rect id="L001_x3B_t.konyha" x="565.2" y="387.2" class="st1" width="18.5" height="17.9"/>
	<rect id="F.WC" x="565.2" y="356.4" class="st1" width="18.5" height="30.8"/>
	<rect id="N.WC" x="565.2" y="337.9" class="st1" width="18.5" height="18.5"/>
	<polyline id="F103_x3B_t.sz." class="st1" points="234.8,431.2 253.8,431.2 253.8,413.4 253.8,431.2 283.6,431.2 283.6,378.1 
		253.8,378.1 253.8,395.5 253.8,378.1 234.8,378.1 234.8,431.2 	"/>
	<polygon class="st1" points="265.9,440.3 265.9,449.4 283.6,449.4 283.6,431.2 246.8,431.2 234.8,431.2 234.8,449.4 246.8,449.4 
		246.8,440.3 	"/>
	<g id="F105_x3B_t.sz.">
		<polygon id="F105_x3B_t.sz._1_" class="st1" points="222.5,419.3 222.5,449.4 234.8,449.4 234.8,419.3 234.8,378.1 204.7,378.1 
			204.7,419.3 		"/>
		<polygon class="st3" points="204.7,407.6 210.55,407.6 216.4,407.6 216.4,413.45 216.4,419.3 216.4,407.6 		"/>
	</g>
	<rect id="F113_x3B_o.t." x="268.3" y="468.6" class="st1" width="51.7" height="48.6"/>
	<rect id="F114_x3B_o.t." x="320" y="468.6" class="st1" width="24.8" height="48.6"/>
	<rect id="F115_x3B_o.t." x="344.8" y="468.6" class="st1" width="61.1" height="48.6"/>
	<rect id="F116_x3B_o.t." x="405.9" y="468.6" class="st1" width="61.5" height="48.6"/>
	<rect id="F117_x3B_t.sz." x="467.5" y="468.6" class="st1" width="24.3" height="48.6"/>
	<rect id="F118_x3B_o.t." x="491.8" y="468.6" class="st1" width="55.3" height="48.6"/>
	<rect id="F119_x3B_o.t." x="547.1" y="468.6" class="st1" width="60.5" height="48.6"/>
	<rect id="F120_x3B_o.t." x="607.6" y="468.6" class="st1" width="62.3" height="62.3"/>
	<rect id="F121_x3B_o.t." x="670" y="468.6" class="st1" width="54.34" height="62.3"/>
	<rect id="F122_x3B_o.t." x="724.34" y="468.6" class="st1" width="91.66" height="62.3"/>
	<rect x="842.5" y="468.6" class="st1" width="30.5" height="13.1"/>
	<rect id="F123_x3B_o.t." x="909.7" y="468.6" class="st1" width="30.5" height="30.5"/>
	<rect id="F124_x3B_o.t." x="940.2" y="468.6" class="st1" width="55.7" height="30.5"/>
	<rect id="F125_x3B_o.t." x="995.8" y="468.6" class="st1" width="55.2" height="30.5"/>
	<rect id="F126_x3B_DÖK" x="1051" y="468.6" class="st1" width="30.5" height="30.5"/>
	<rect id="N.WC_1_" x="1112.5" y="491.9" class="st1" width="12.8" height="7.2"/>
	<rect id="F.WC_2_" x="1112.5" y="484.7" class="st1" width="12.8" height="7.2"/>
	<rect id="F128" x="1112.5" y="468.6" class="st1" width="6.3" height="16.1"/>
	<rect id="H011_x3B_o.t." x="1087.6" y="273.4" class="st1" width="36.9" height="64.5"/>
	<rect id="Kapcs._szekr." x="1136.9" y="337.9" class="st1" width="6" height="25.6"/>
	<rect id="H010_x3B_o.t." x="1087.6" y="221.9" class="st1" width="36.9" height="51.6"/>
	<rect id="H004_x3B_Hőközpont" x="1118.5" y="51.3" class="st1" width="24.3" height="30.6"/>
	<rect id="K._sz." x="976.1" y="119.5" class="st1" width="18.5" height="11.5"/>
	<rect id="WC" x="976.1" y="106.6" class="st1" width="18.5" height="12.8"/>
	<rect id="F._WC" x="932.7" y="94.1" class="st1" width="30.6" height="12.5"/>
	<rect id="H008_x3B_CISCO_labor" x="994.6" y="106.6" class="st1" width="24.3" height="52.5"/>
	<rect id="H009_x3B_szaktanterem" x="1018.8" y="106.6" class="st1" width="49.4" height="52.5"/>
	<polygon id="H007_x3B_rendszergazda" class="st1" points="932.7,106.6 932.7,159.2 994.6,159.2 994.6,131 976.1,131 976.1,106.6 	
		"/>
	<g id="N._WC">
		<rect id="N._WC_1_" x="932.7" y="81.9" class="st1" width="30.6" height="12.2"/>
		<line class="st2" x1="957.2" y1="81.9" x2="957.2" y2="94.1"/>
		<line class="st2" x1="944.8" y1="81.9" x2="944.8" y2="94.1"/>
	</g>
	<polygon id="H001_x3B_o.t." class="st1" points="1120.1,363.5 1106.4,363.5 1106.4,382.7 1106.4,455.5 1142.9,455.5 1142.9,382.7 
		1127.6,382.7 	"/>
	<g id="F.WC_1_">
		<polygon id="F.WC_5_" class="st1" points="1127.6,382.7 1142.9,382.7 1142.9,363.5 1120.1,363.5 		"/>
		<line class="st2" x1="1130.9" y1="363.5" x2="1130.9" y2="382.7"/>
	</g>
	<g id="csopi">
		<polygon class="st1" points="1081.5,468.6 1081.5,499.1 1081.5,516.2 1131.4,516.2 1131.4,499.1 1112.6,499.1 1112.6,468.6 		"/>
		<polyline class="st4" points="1081.5,499.1 1081.5,516.2 1131.4,516.2 1131.4,499.1 1099.55,499.1 		"/>
	</g>
	<polyline id="F._öltöző" class="st1" points="1081.5,499.1 1081.5,468.6 1112.6,468.6 1112.6,499.1 1099.55,499.1 	"/>
	<polyline class="st1" points="1131.4,499.1 1131.4,468.6 1118.8,468.6 1118.8,484.7 1125.3,484.7 1125.3,499.1 1131.4,499.1 	"/>
	<line class="st4" x1="607.6" y1="447.4" x2="601.9" y2="447.4"/>
	<line class="st4" x1="583.6" y1="447.4" x2="571.4" y2="447.4"/>
	<line class="st4" x1="553.2" y1="447.4" x2="547" y2="447.4"/>
	<line class="st4" x1="547.1" y1="429.3" x2="607.6" y2="429.3"/>
</g>
<g id="lépcsők">
	<g>
		<rect x="547" y="405" class="st5" width="30.5" height="24.2"/>
		<g>
			<polyline class="st4" points="568.8,412.2 565.5,412.2 565.5,415.5 562.2,415.5 562.2,418.8 559,418.8 559,422.1 555.7,422.1 			
				"/>
			<polygon class="st4" points="565.3,422 563.8,422 563.8,420.4 564.6,421.2 567.4,418.3 564.6,421.2 			"/>
		</g>
	</g>
	<g>
		<rect x="577.5" y="405" class="st5" width="30.1" height="24.2"/>
		<g>
			<polyline class="st4" points="599.1,412.2 595.8,412.2 595.8,415.5 592.5,415.5 592.5,418.8 589.2,418.8 589.2,422.1 586,422.1 
							"/>
			<polygon class="st4" points="596.2,418.3 597.7,418.3 597.7,419.8 597,419.1 594.1,422 597,419.1 			"/>
		</g>
	</g>
	<g>
		<polygon class="st5" points="234.8,449.4 234.8,431.2 265.9,431.2 265.9,440.3 246.8,440.3 246.8,449.4 		"/>
		<g>
			<polyline class="st4" points="253.6,432.9 251.6,432.9 251.6,434.8 249.7,434.8 249.7,436.8 247.8,436.8 247.8,438.7 
				245.8,438.7 			"/>
			<polygon class="st4" points="251.8,436.5 252.7,436.5 252.7,437.4 252.3,436.9 250.6,438.6 252.3,436.9 			"/>
		</g>
	</g>
	<g>
		<rect x="497.8" y="119" class="st5" width="8.9" height="43.2"/>
		<g>
			<polyline class="st4" points="505.6,138.1 504,138.1 504,139.8 502.3,139.8 502.3,141.4 500.6,141.4 500.6,143.1 499,143.1 			
				"/>
			<polygon class="st4" points="504.1,141.2 504.9,141.2 504.9,142 504.5,141.6 503.1,143 504.5,141.6 			"/>
		</g>
	</g>
	<g>
		<rect x="506.7" y="119" class="st6" width="8.9" height="43.2"/>
		<polyline class="st6" points="514.5,138.2 512.9,138.2 512.9,139.8 511.2,139.8 511.2,141.5 509.5,141.5 509.5,143.1 507.9,143.1 
					"/>
		<g>
			<polyline class="st4" points="514.5,138.2 512.8,138.2 512.8,139.8 511.2,139.8 511.2,141.5 509.6,141.5 509.6,143.1 
				507.9,143.1 			"/>
			<polygon class="st4" points="513.1,143.1 512.3,143.1 512.3,142.3 512.7,142.7 514.2,141.3 512.7,142.7 			"/>
		</g>
	</g>
	<g>
		<rect x="185.8" y="378.1" class="st5" width="18.9" height="41.5"/>
		<g>
			<polyline class="st4" points="201.8,393.9 198.5,393.9 198.5,397.2 195.2,397.2 195.2,400.5 192,400.5 192,403.8 188.7,403.8 			
				"/>
			<polygon class="st4" points="198.3,403.7 196.8,403.7 196.8,402.1 197.6,402.9 200.4,400 197.6,402.9 			"/>
		</g>
	</g>
	<g>
		<g>
			<polygon class="st6" points="860.2,349.9 860.2,399.4 848.1,399.4 848.1,362.5 841.3,362.5 841.3,349.9 			"/>
		</g>
		<g>
			<polyline class="st4" points="858.8,364.7 856.4,364.7 856.4,367.1 854,367.1 854,369.5 851.7,369.5 851.7,371.9 849.3,371.9 			
				"/>
			<polygon class="st4" points="856.7,369.1 857.8,369.1 857.8,370.2 857.2,369.7 855.2,371.8 857.2,369.7 			"/>
		</g>
	</g>
	<g>
		<polygon class="st5" points="1129,468.6 1129,455.5 1142.9,455.5 1142.9,516.2 1131.4,516.2 1131.4,468.6 		"/>
		<g>
			<polyline class="st4" points="1142,475.6 1139.5,475.6 1139.5,478 1137.1,478 1137.1,480.4 1134.7,480.4 1134.7,482.9 
				1132.3,482.9 			"/>
			<polygon class="st4" points="1139.8,480.1 1140.9,480.1 1140.9,481.2 1140.4,480.6 1138.2,482.8 1140.4,480.6 			"/>
		</g>
	</g>
	<g>
		<rect x="1043.5" y="94.3" class="st5" width="24.7" height="12.3"/>
		<g>
			<polyline class="st4" points="1060.9,96.7 1058.4,96.7 1058.4,99.2 1055.9,99.2 1055.9,101.7 1053.4,101.7 1053.4,104.2 
				1050.8,104.2 			"/>
			<polygon class="st4" points="1058.7,101.3 1059.8,101.3 1059.8,102.5 1059.3,101.9 1057.1,104.1 1059.3,101.9 			"/>
		</g>
	</g>
</g>
</svg>
