<svg xmlns="http://www.w3.org/2000/svg" xml:space="preserve" viewBox="0 0 1000 1000"><g fill="#dbdbdb" stroke="#000" stroke-miterlimit="10"><path d="M206.66 387.3v115.06h572.3v30.21h73.02v-30.21h262.81v109.62h54.55V441.55H607.72v-54.61h-24.59v-66.79h-17.7V192.23H736.7V380.4h79.02V192.23h15.19v-18.39h-9.31v-48.33H565.43v-5.79h-60.81v42h-6.17v30.51h6.17v212.94h42.29v36.38H500v-18.19H279.2V387.3zM1072.32 216.06h97.28v-66.55h-133.96v42.21h36.68z"/></g><g id="termek" fill="#fff" stroke="#000" stroke-miterlimit="10"><path id="Nagy_tanári_szoba" d="M625.89 441.55h122.77v42.09H625.89z"/><path id="F211_x3B_o.t." d="M559.13 466.02h48.6v36.34h-48.6z"/><path id="F210_x3B_o.t." d="M498.45 466.02h60.68v36.34h-60.68z"/><path id="F209_x3B_o.t." d="M449.68 466.02h48.77v36.34h-48.77z"/><path id="F208_x3B_t.sz." d="M425.04 466.02h24.38v36.34h-24.38z"/><path id="F206_x3B_K._előtér" d="M425.04 441.64h55.02v24.38h-55.02z"/><path id="Könyvtár" d="M279.2 441.64h145.84v60.72H279.2z"/><path id="F204" d="M236.91 460.07h42.29v42.29h-42.29z"/><path id="F203" d="M206.66 460.07h30.25v42.29h-30.25z"/><g id="Konyha"><path id="Konyha_1_" d="M206.66 423.77h30.25v17.87h-30.25z"/><path d="M206.66 423.77h17.87v17.87h-17.87zM224.53 423.77h12.38v17.87h-12.38z"/></g><path id="Pénztár" d="M206.66 387.3h30.25v36.47h-30.25z"/><path id="F201_x3B_o.t." d="M236.91 387.3h42.29v36.47h-42.29z"/><path id="N.WC__x28_tanári_x29_" d="M565.43 350.61h17.7v36.33h-17.7z"/><path id="N.WC_3_" d="M565.43 320.15h17.7v30.46h-17.7z"/><path id="L110_x3B_o.t." d="M565.43 125.51h48.33v48.33h-48.33z"/><path id="L109_x3B_o.t." d="M613.76 125.51h67.79v48.33h-67.79z"/><path id="L108_x3B_Anal._lab." d="M681.55 125.51h36.77v48.33h-36.77z"/><path id="L107_x3B_t.sz." d="M718.32 125.51h18.38v48.33h-18.38z"/><path id="L106_x3B_t.sz." d="M736.7 125.51h18.38v48.33H736.7z"/><path id="L105_x3B_o.t." d="M755.09 125.51h42.26v48.33h-42.26z"/><path id="L103_x3B_Medencés_labor" d="M736.7 192.23h79.02v72.51H736.7z"/><path id="H102_x3B_szaktanterem" d="M1035.64 149.51h115.32v42.21h-115.32z"/><g id="H101_x3B_rakt."><path id="H101_x3B_rakt._1_" d="M1150.96 149.51h18.64v66.55h-18.64z"/><path d="M1150.96 149.51h18.64v42.21h-18.64zM1150.96 191.72h18.64v24.34h-18.64z"/></g><path id="I102_x3B_Rajz_terem" d="M736.7 264.74h48.13v91.4H736.7z"/><path id="Csőlabor" d="M784.83 264.74h30.89v54.77h-30.89z"/><path id="I101_x3B_t.sz." d="M784.83 319.51h30.89v18.26h-30.89z"/><path id="N.WC_4_" d="M736.7 356.15h24.06v12.13H736.7z"/><path id="F.WC_3_" d="M736.7 368.28h36v12.13h-36z"/><path id="Tár." d="M772.7 368.28h12.13v12.13H772.7z"/><path id="L104_x3B_Anal._rakt." d="M797.34 125.51h24.26v48.33h-24.26z"/><path id="F.WC_2_" d="M553.77 119.72h11.66v42h-11.66z"/><path id="L112_x3B_Vegyi_raktár" d="M535.51 119.72h18.26v42h-18.26z"/><path id="N.WC_2_" d="M523.38 119.72h12.13v42h-12.13z"/><g id="L116_x3B_Műsz._labor"><path d="M504.62 386.94h42.29v18.23h-42.29z"/><path id="L116_x3B_Műsz._labor_1_" d="M504.62 314.28h42.29v72.66h-42.29z"/></g><path id="L115_x3B_Műsz._labor" d="M504.62 222.74h42.29v91.53h-42.29z"/><path id="L114_x3B_Műsz._labor" d="M504.62 192.23h42.29v30.51h-42.29z"/><path id="F.WC__x28_tanári_x29_" d="M778.96 502.36h24.34v30.21h-24.34z"/><path id="N.WC__x28_tanári_x29__1_" d="M803.3 502.36h24.34v30.21H803.3z"/><path id="Raktár" d="M827.64 502.36h24.34v30.21h-24.34z"/><path id="Padlás_4." d="M1126.83 502.36h-12.04v109.62h54.55V483.64h-42.51v18.69z"/><g id="titkárság"><path id="Igazgató" d="M748.66 441.55h30.3v42.09h-30.3z"/><path id="Titkárság" d="M778.96 441.55h30.3v42.09h-30.3z"/><path id="Igh._1" d="M809.26 441.55h24.34v42.09h-24.34z"/></g><path id="F222_x3B_Igh._2" d="M833.6 441.55h18.04v42.09H833.6z"/><path id="F221_x3B_Igh._3" d="M851.64 441.55h24.51v42.09h-24.51z"/><path id="F220_x3B_o.t." d="M876.15 441.55h42.09v42.09h-42.09z"/><path id="F219_x3B_o.t." d="M918.23 441.55h74v42.09h-74z"/><path id="F218_x3B_o.t." d="M992.23 441.55h56v42.09h-56z"/><path id="F217_x3B_o.t." d="M1048.23 441.55h66.55v42.09h-66.55z"/><path id="N.WC" d="M1114.79 441.55h54.55V449h-54.55z"/><path id="F.WC" d="M1114.79 449h18.04v23.19h-18.04z"/></g><g id="lépcsők" stroke-miterlimit="10"><path fill="#efefef" stroke="#000" d="M815.72 359.09v-21.32h-18.34v12.08h5.92v9.24"/><g fill="none" stroke="#020203"><path d="M814.7 344.5h-2.61v2.62h-2.62v2.61h-2.61v2.62h-2.62M812.37 349.34h1.22v1.22l-.61-.61-2.28 2.28 2.28-2.28z"/></g><path fill="#efefef" stroke="#000" d="M803.3 359.09v9.19h-5.92v12.12h18.34v-21.31z"/><g fill="none" stroke="#020203"><path d="M814.7 365.82h-2.61v2.62h-2.62v2.61h-2.61v2.62h-2.62M811.91 373.55h-1.21v-1.22l.6.61 2.29-2.28-2.29 2.28z"/></g><path fill="#efefef" stroke="#000" d="M504.62 119.72h18.76v42h-18.76z"/><g fill="none" stroke="#020203"><path d="M519.72 136.43h-2.86v2.86H514v2.86h-2.86v2.86h-2.86M516.67 144.89h-1.33v-1.33l.66.66 2.5-2.5-2.5 2.5z"/></g><path fill="#efefef" stroke="#000" d="M1072.32 203.89h54.3v12.17h-54.3z"/><g fill="none" stroke="#020203"><path d="M1105.19 205.69h-2.86v2.86h-2.86v2.86h-2.86v2.86h-2.86M1102.13 214.14h-1.32v-1.33l.66.67 2.5-2.5-2.5 2.5z"/></g><g><path fill="#efefef" stroke="#000" d="M1072.32 191.72h54.3v12.17h-54.3z"/><g fill="none" stroke="#020203"><path d="M1105.19 193.52h-2.86v2.86h-2.86v2.86h-2.86v2.86h-2.86M1102.64 198.81h1.33v1.33l-.66-.66-2.5 2.49 2.5-2.49z"/></g></g><g><path fill="#efefef" stroke="#000" d="M1157.15 465.85V449h12.19v34.64h-24.38v-11.07h6.32s5.87-.24 5.87-6.72z"/><g fill="none" stroke="#020203"><path d="M1168.04 462.13h-2.4v2.39h-2.4v2.4h-2.39v2.4h-2.4M1165.48 469.22h-1.11v-1.12l.55.56 2.1-2.1-2.1 2.1z"/></g></g><g><path fill="#efefef" stroke="#000" d="M236.91 423.77h24.16v17.87h-24.16z"/><g fill="none" stroke="#020203"><path d="M254.71 428.37h-2.86v2.86h-2.86v2.86h-2.86v2.86h-2.86M251.65 436.82h-1.32v-1.33l.66.67 2.5-2.5-2.5 2.5z"/></g></g><g><path fill="#efefef" stroke="#000" d="M595.38 417.26h-36.25v12.12h36.25v12.17h-48.47v-36.38h48.47v24.21"/><g fill="none" stroke="#020203"><path d="M557.83 419.76h-2.41v2.4h-2.4v2.4h-2.4v2.4h-2.4M555.26 426.86h-1.11v-1.12l.55.56 2.1-2.1-2.1 2.1z"/></g></g></g></svg>