<?xml version="1.0" encoding="utf-8"?>
<!-- Generator: Adobe Illustrator 25.2.1, SVG Export Plug-In . SVG Version: 6.00 Build 0)  -->
<svg version="1.1" id="Réteg_1" xmlns="http://www.w3.org/2000/svg" xmlns:xlink="http://www.w3.org/1999/xlink" x="0px" y="0px"
	 viewBox="0 0 185 256" style="enable-background:new 0 0 185 256;" xml:space="preserve">
<path style="fill:#FFFFFF;stroke:#000000;stroke-miterlimit:10;" d="M132.5,247.5"/>
<path style="fill:#E31E24;stroke:#000000;stroke-width:2;stroke-miterlimit:10;" d="M86.5,173.5c61.17,0,60.17,81-0.46,81
	C28.58,254.51,23.67,173.5,86.5,173.5z M86.3,229.62c23.38,0,23.77-31.24,0.18-31.24C62.25,198.38,64.14,229.62,86.3,229.62z"/>
<path style="fill:#F19616;stroke:#000000;stroke-width:6;stroke-linecap:round;stroke-miterlimit:10;" d="M86.55,214
	c7.29-6.3,14.1-12.46,20.44-18.48c7.37-7,14.11-13.81,20.26-20.42c11.33-12.19,20.64-23.73,28.16-34.63
	c7.14-10.36,12.67-20.13,16.76-29.31c4.82-10.84,7.65-20.87,8.77-30.08c1.07-8.78,0.6-16.81-1.16-24.1
	c-1.49-6.16-3.89-11.8-7.05-16.89c-3.92-6.31-8.99-11.79-14.93-16.45c-5-3.92-10.61-7.25-16.65-10c-6.27-2.85-13.01-5.08-20.01-6.66
	C112.85,5.09,104.2,4.1,95.51,4C82.96,3.86,70.33,5.57,58.62,9.16c-9.79,3-18.93,7.3-26.84,12.92c-6.96,4.94-12.97,10.9-17.64,17.88
	C8.84,47.9,5.27,57.15,4.03,67.72c-1.19,10.17-0.24,21.57,3.38,34.2c2.86,9.97,7.38,20.71,13.82,32.21
	c5.58,9.97,12.59,20.51,21.21,31.63c8.42,10.87,18.37,22.29,30.01,34.26C76.91,204.61,81.6,209.26,86.55,214"/>
<path style="fill:#F9DF0D;stroke:#000000;stroke-width:3;stroke-linecap:round;stroke-miterlimit:10;" d="M93.94,40.86
	c47.09,0,46.39,70.29,0,70.29C46.15,111.14,47.55,40.86,93.94,40.86z"/>
<g>
</g>
<g>
</g>
<g>
</g>
<g>
</g>
<g>
</g>
<g>
</g>
<g>
</g>
<g>
</g>
<g>
</g>
<g>
</g>
<g>
</g>
<g>
</g>
<g>
</g>
<g>
</g>
<g>
</g>
</svg>
