<svg xmlns="http://www.w3.org/2000/svg" xml:space="preserve" id="Réteg_1" x="0" y="0" version="1.1" viewBox="0 0 185 256"><path fill="#e31e24" stroke="#000" stroke-miterlimit="10" stroke-width="2" d="M86.5 173.5c61.17 0 60.17 81-.46 81-57.46.01-62.37-81 .46-81zm-.2 56.12c23.38 0 23.77-31.24.18-31.24-24.23 0-22.34 31.24-.18 31.24z"/><path fill="#f19616" stroke="#000" stroke-linecap="round" stroke-miterlimit="10" stroke-width="6" d="M86.55 214c7.29-6.3 14.1-12.46 20.44-18.48 7.37-7 14.11-13.81 20.26-20.42 11.33-12.19 20.64-23.73 28.16-34.63 7.14-10.36 12.67-20.13 16.76-29.31 4.82-10.84 7.65-20.87 8.77-30.08 1.07-8.78.6-16.81-1.16-24.1a57.52 57.52 0 0 0-7.05-16.89c-3.92-6.31-8.99-11.79-14.93-16.45-5-3.92-10.61-7.25-16.65-10-6.27-2.85-13.01-5.08-20.01-6.66C112.85 5.09 104.2 4.1 95.51 4c-12.55-.14-25.18 1.57-36.89 5.16-9.79 3-18.93 7.3-26.84 12.92-6.96 4.94-12.97 10.9-17.64 17.88-5.3 7.94-8.87 17.19-10.11 27.76-1.19 10.17-.24 21.57 3.38 34.2 2.86 9.97 7.38 20.71 13.82 32.21 5.58 9.97 12.59 20.51 21.21 31.63 8.42 10.87 18.37 22.29 30.01 34.26 4.46 4.59 9.15 9.24 14.1 13.98"/><path fill="#f9df0d" stroke="#000" stroke-linecap="round" stroke-miterlimit="10" stroke-width="3" d="M93.94 40.86c47.09 0 46.39 70.29 0 70.29-47.79-.01-46.39-70.29 0-70.29z"/></svg>