<svg xmlns="http://www.w3.org/2000/svg" xml:space="preserve" viewBox="0 0 1000 1000"><g id="háttér" fill="#dbdbdb" stroke="#000" stroke-miterlimit="10"><path d="M38.8 446.8V517h511v49.7h57.8V517h156.8v24.7h20.1V517h183v-50H607.6v-53.4h-80.5v33.3h-253v-57.7h-85.7v57.7z"/><path d="M665.5 504h-57.9v-26.9"/></g><g id="termek" fill="#fff" stroke-miterlimit="10"><path id="F014_x3B_Vas_raktár" stroke="#000" d="M38.8 446.8h63V467h-63z"/><path id="F015_x3B_Anyag_vizsgáló" stroke="#000" d="M38.8 467h75.6v50H38.8z"/><path id="F016_x3B_o.t." stroke="#000" d="M114.3 467h63.8v50h-63.8z"/><path id="F017_x3B_Öltöző" stroke="#000" d="M178.1 467h25.3v50h-25.3z"/><path id="F018_x3B_Képlékeny_átalakító" stroke="#000" d="M203.5 467h22.9v50h-22.9z"/><path id="F019_x3B_Karbantartó_műhely" stroke="#000" d="M226.4 467h22.9v50h-22.9z"/><path id="F020_x2C__F021_x3B_Gépműhely" stroke="#000" d="M249.3 467h169.2v50H249.3z"/><g id="F022_x3B_szerelő_műhely"><path id="F022_x3B_szerelő_műhely_1_" stroke="#000" d="M464.2 517h-45.7v-50h45.7z"/><path stroke="#7f7f7f" d="M448.8 467v50"/></g><path id="F023_x3B_t.sz." stroke="#000" d="M464.2 467h15.1v50h-15.1z"/><path id="F024_x3B_Szaktanterem" stroke="#000" d="M479.3 467h106v50h-106z"/><path id="F.WC_1_" stroke="#000" d="M203.5 426.8H239v20.1h-35.5z"/><g id="F012"><path id="F012_x3B_t.sz." stroke="#000" d="M274.1 426.8v-37.6H239v57.7h35.1z"/><path stroke="#7f7f7f" d="M254.1 389.2v37.5l20.1.1H239l15.1-.1z"/></g><path id="Hőközpont" stroke="#000" d="M203.5 389.2H239v37.5h-35.5z"/><path id="Bejárat" stroke="#000" d="M549.8 517h12.5v19.5h-12.5z"/><path id="Porta" stroke="#000" d="M549.8 536.5h12.5V554h-12.5z"/><g stroke="#000"><path d="M580.1 566.7h-30.3v-12.6h30.3zM567.4 554.1v12.6"/></g><path id="Büfé" stroke="#000" d="M580.1 554.1h27.5v12.6h-27.5z"/><g stroke="#000"><path d="M527.1 413.6h42.8v33.3h-42.8z"/><path id="F.WC" d="M527.1 413.6h30.3v33.3h-30.3z"/><path id="Tan._WC" d="M557.4 413.6h12.5v19.9h-12.5z"/></g><path id="F010_x2C__F009_x3B_Múzeum" stroke="#000" d="M665.5 467h108.9v37H665.5z"/><path id="F008_x3B_Diák_öltöző" stroke="#000" d="M774.3 467H797v37h-22.7z"/><path id="F007_x3B_Diák_öltöző" stroke="#000" d="M797.1 467h22.7v37h-22.7z"/><path id="F006_x3B_régi_képl._átal." stroke="#000" d="M819.8 467h22.5v37h-22.5z"/><path id="F005_x3B_Vas_raktár" stroke="#000" d="M842.2 467h55.1v37h-55.1z"/><path id="F004_x3B_Hőcserélő" stroke="#000" d="M897.3 467h29.9v37h-29.9z"/><path id="F003_x3B_Takarítók" stroke="#000" d="M927.2 467h40.3v37h-40.3z"/><path id="F002" stroke="#000" d="M952.3 504h15.2v13h-15.2z"/><path id="N.WC" stroke="#000" d="M764.4 517h20.1v24.7h-20.1z"/></g><g id="lépcsők" stroke="#000" stroke-miterlimit="10"><path fill="#efefef" d="M188.4 389.2h15.1v37.5h-15.1z"/><g fill="none"><path d="M201.7 403.7h-2.9v2.9H196v2.8h-2.9v2.9h-2.9M199.1 409h1.4v1.3l-.7-.6-2.5 2.5 2.5-2.5z"/></g><g><path fill="#efefef" d="M569.9 413.6h37.7v25.6h-15.1v-10.5h-22.6z"/><g fill="none"><path d="M605.6 420.1h-2.8v2.9h-2.9v2.9H597v2.8h-2.8M603.1 425.4h1.3v1.4l-.7-.7-2.5 2.5 2.5-2.5z"/></g></g></g></svg>