<svg xmlns="http://www.w3.org/2000/svg" xml:space="preserve" viewBox="0 0 1000 1000"><path id="háttér" fill="#dbdbdb" stroke="#000" stroke-miterlimit="10" d="M719.4 468.7h108.41v13.1H873v-13.1h36.7v30.5h171.8v17h61.4V51.3h-24.3v30.6H932.7v77.2h135.6v-52.5h56.3v115.2h-36.9v233.6H848.1v-56h12.1v-74.1h12.5v-18.6h-12.5V193.3h6.3l-.9-68.1H565.2V119h-67.3v43.2h-7.2v31h7.2v256.1h-85.4v-18.2h-19v18.2H283.6V378h-243v139.1h567V531h111.8v-62.3zm108.41-.1v13.1M703.5 449.4v-24.9h-24.8V413h-71.1v-8h-24v-67.1h-18.5V193.3H799V455.5h-95.5v-6.1zM497.8 162.3v31"/><g id="termek" stroke-miterlimit="10"><path id="Szertár" fill="#fff" stroke="#000" d="M40.6 468.6h48.6v48.6H40.6z"/><path id="F109_x3B_Testnevelés_terem" fill="#fff" stroke="#000" d="M40.6 378.1h145.2v90.5H40.6z"/><path id="F110_x3B_o.t." fill="#fff" stroke="#000" d="M89.2 468.6h66.6v48.6H89.2z"/><path id="F111_x3B_Kondi_terem" fill="#fff" stroke="#000" d="M155.9 486.2h48.9v31h-48.9z"/><path id="F112_x3B_o.t." fill="#fff" stroke="#000" d="M204.7 468.6h63.6v48.6h-63.6z"/><path id="N.WC_4_" fill="#fff" stroke="#000" d="M204.7 419.3h17.8v30.1h-17.8z"/><path id="F104" fill="#fff" stroke="#000" d="M246.9 440.3h19v9.1h-19z"/><path id="Bejárat_sportpálya_felől" fill="#fff" stroke="#000" d="M393.4 431.2h19v18.2h-19z"/><path id="N.WC_3_" fill="#fff" stroke="#000" d="M497.8 427.2h24.9v22.2h-24.9z"/><path id="L015_x3B_o.t." fill="#fff" stroke="#000" d="M497.8 304.6H547v76.9h-49.2z"/><path id="L014_x3B_o.t." fill="#fff" stroke="#000" d="M497.8 240.9H547v63.7h-49.2z"/><path id="L013_x3B_öltöző" fill="#fff" stroke="#000" d="M497.8 193.3H547V241h-49.2z"/><path id="Ak.m.WC" fill="#fff" stroke="#000" d="M515.7 119h11.9v43.2h-11.9z"/><path id="N.WC_2_" fill="#fff" stroke="#000" d="M527.5 119H546v43.2h-18.5z"/><path id="F.WC_4_" fill="#fff" stroke="#000" d="M546.1 119h19v43.2h-19z"/><path id="L009_x3B_Szerves_labor" fill="#fff" stroke="#000" d="M565.2 125.2h121.9v48.9H565.2z"/><path id="Kapcsoló_szekrény" fill="#fff" stroke="#000" d="M687 125.2h24.8v48.9H687z"/><path id="Előkészítő" fill="#fff" stroke="#000" d="M711.8 125.2h37.5v48.9h-37.5z"/><path id="Labor1_x2C__Labor2" fill="#fff" stroke="#000" d="M749.3 125.2h116.2v48.9H749.3z"/><g id="Orvosi_rendelő_1_"><path id="Orvosi_rendelő" fill="#fff" stroke="#000" d="M497.8 381.5H547v45.7h-49.2z"/><path fill="none" stroke="#7f7f7f" d="M534.9 381.5V405h-37.1H547h-12.1z"/></g><path id="F.WC_3_" fill="#fff" stroke="#000" d="M522.7 427.2H547v22.2h-24.3z"/><path id="F135_x3B_o.t." fill="#fff" stroke="#000" d="M607.6 413h71.1v42.5h-71.1z"/><path id="Kazánház" fill="#fff" stroke="#000" d="M799.1 388.7H836v66.8h-36.9z"/><path id="Kazánház_előtér" fill="#fff" stroke="#000" d="M799.1 370.1H836v18.6h-36.9z"/><path id="Bejárat_tanáriparkoló_felől" fill="#fff" stroke="#000" d="M836 332.4h24.2v17.5H836z"/><path fill="#fff" stroke="#000" d="M860.2 306.6h12.5v18.6h-12.5z"/><path id="Karbantartó_műhely" fill="#fff" stroke="#000" d="M799.1 300.9h61.1v31.5h-61.1z"/><path id="Raktár_2_" fill="#fff" stroke="#000" d="M799.1 253h61.1v47.9h-61.1z"/><path id="Raktár_1_" fill="#fff" stroke="#000" d="M817.3 193.3h42.9V253h-42.9z"/><path id="Raktár" fill="#fff" stroke="#000" d="M799.1 229h18.2v24h-18.2z"/><path id="Tanári_pihenő" fill="#fff" stroke="#000" d="M799.1 193.3h18.2V229h-18.2z"/><g id="F134_x3B_t.sz."><path id="F134_x3B_t.sz._1_" fill="#fff" stroke="#000" d="M678.7 424.5h24.8v30.9h-24.8z"/><path fill="none" stroke="#7f7f7f" d="M694.3 424.5v31"/></g><path id="L001_x3B_t.konyha" fill="#fff" stroke="#000" d="M565.2 387.2h18.5v17.9h-18.5z"/><path id="F.WC" fill="#fff" stroke="#000" d="M565.2 356.4h18.5v30.8h-18.5z"/><path id="N.WC" fill="#fff" stroke="#000" d="M565.2 337.9h18.5v18.5h-18.5z"/><path id="F103_x3B_t.sz." fill="#fff" stroke="#000" d="M234.8 431.2h19v-17.8 17.8h29.8v-53.1h-29.8v17.4-17.4h-19v53.1"/><path fill="#fff" stroke="#000" d="M265.9 440.3v9.1h17.7v-18.2h-48.8v18.2h12v-9.1z"/><g id="F105_x3B_t.sz." fill="#fff"><path id="F105_x3B_t.sz._1_" stroke="#000" d="M222.5 419.3v30.1h12.3V378.1h-30.1v41.2z"/><path stroke="#7f7f7f" d="M204.7 407.6h11.7v11.7-11.7z"/></g><path id="F113_x3B_o.t." fill="#fff" stroke="#000" d="M268.3 468.6H320v48.6h-51.7z"/><path id="F114_x3B_o.t." fill="#fff" stroke="#000" d="M320 468.6h24.8v48.6H320z"/><path id="F115_x3B_o.t." fill="#fff" stroke="#000" d="M344.8 468.6h61.1v48.6h-61.1z"/><path id="F116_x3B_o.t." fill="#fff" stroke="#000" d="M405.9 468.6h61.5v48.6h-61.5z"/><path id="F117_x3B_t.sz." fill="#fff" stroke="#000" d="M467.5 468.6h24.3v48.6h-24.3z"/><path id="F118_x3B_o.t." fill="#fff" stroke="#000" d="M491.8 468.6h55.3v48.6h-55.3z"/><path id="F119_x3B_o.t." fill="#fff" stroke="#000" d="M547.1 468.6h60.5v48.6h-60.5z"/><path id="F120_x3B_o.t." fill="#fff" stroke="#000" d="M607.6 468.6h62.3v62.3h-62.3z"/><path id="F121_x3B_o.t." fill="#fff" stroke="#000" d="M670 468.6h54.34v62.3H670z"/><path id="F122_x3B_o.t." fill="#fff" stroke="#000" d="M724.34 468.6H816v62.3h-91.66z"/><path fill="#fff" stroke="#000" d="M842.5 468.6H873v13.1h-30.5z"/><path id="F123_x3B_o.t." fill="#fff" stroke="#000" d="M909.7 468.6h30.5v30.5h-30.5z"/><path id="F124_x3B_o.t." fill="#fff" stroke="#000" d="M940.2 468.6h55.7v30.5h-55.7z"/><path id="F125_x3B_o.t." fill="#fff" stroke="#000" d="M995.8 468.6h55.2v30.5h-55.2z"/><path id="F126_x3B_DÖK" fill="#fff" stroke="#000" d="M1051 468.6h30.5v30.5H1051z"/><path id="N.WC_1_" fill="#fff" stroke="#000" d="M1112.5 491.9h12.8v7.2h-12.8z"/><path id="F.WC_2_" fill="#fff" stroke="#000" d="M1112.5 484.7h12.8v7.2h-12.8z"/><path id="F128" fill="#fff" stroke="#000" d="M1112.5 468.6h6.3v16.1h-6.3z"/><path id="H011_x3B_o.t." fill="#fff" stroke="#000" d="M1087.6 273.4h36.9v64.5h-36.9z"/><path id="Kapcs._szekr." fill="#fff" stroke="#000" d="M1136.9 337.9h6v25.6h-6z"/><path id="H010_x3B_o.t." fill="#fff" stroke="#000" d="M1087.6 221.9h36.9v51.6h-36.9z"/><path id="H004_x3B_Hőközpont" fill="#fff" stroke="#000" d="M1118.5 51.3h24.3v30.6h-24.3z"/><path id="K._sz." fill="#fff" stroke="#000" d="M976.1 119.5h18.5V131h-18.5z"/><path id="WC" fill="#fff" stroke="#000" d="M976.1 106.6h18.5v12.8h-18.5z"/><path id="F._WC" fill="#fff" stroke="#000" d="M932.7 94.1h30.6v12.5h-30.6z"/><path id="H008_x3B_CISCO_labor" fill="#fff" stroke="#000" d="M994.6 106.6h24.3v52.5h-24.3z"/><path id="H009_x3B_szaktanterem" fill="#fff" stroke="#000" d="M1018.8 106.6h49.4v52.5h-49.4z"/><path id="H007_x3B_rendszergazda" fill="#fff" stroke="#000" d="M932.7 106.6v52.6h61.9V131h-18.5v-24.4z"/><g id="N._WC"><path id="N._WC_1_" fill="#fff" stroke="#000" d="M932.7 81.9h30.6v12.2h-30.6z"/><path fill="none" stroke="#7f7f7f" d="M957.2 81.9v12.2M944.8 81.9v12.2"/></g><path id="H001_x3B_o.t." fill="#fff" stroke="#000" d="M1120.1 363.5h-13.7v92h36.5v-72.8h-15.3z"/><g id="F.WC_1_"><path id="F.WC_5_" fill="#fff" stroke="#000" d="M1127.6 382.7h15.3v-19.2h-22.8z"/><path fill="none" stroke="#7f7f7f" d="M1130.9 363.5v19.2"/></g><g id="csopi" stroke="#000"><path fill="#fff" d="M1081.5 468.6v47.6h49.9v-17.1h-18.8v-30.5z"/><path fill="none" d="M1081.5 499.1v17.1h49.9v-17.1h-31.85"/></g><path id="F._öltöző" fill="#fff" stroke="#000" d="M1081.5 499.1v-30.5h31.1v30.5h-13.05"/><path fill="#fff" stroke="#000" d="M1131.4 499.1v-30.5h-12.6v16.1h6.5v14.4h6.1"/><path fill="none" stroke="#000" d="M607.6 447.4h-5.7M583.6 447.4h-12.2M553.2 447.4H547M547.1 429.3h60.5"/></g><g id="lépcsők"><g stroke="#000" stroke-miterlimit="10"><path fill="#efefef" d="M547 405h30.5v24.2H547z"/><g fill="none"><path d="M568.8 412.2h-3.3v3.3h-3.3v3.3H559v3.3h-3.3M565.3 422h-1.5v-1.6l.8.8 2.8-2.9-2.8 2.9z"/></g></g><g stroke="#000" stroke-miterlimit="10"><path fill="#efefef" d="M577.5 405h30.1v24.2h-30.1z"/><g fill="none"><path d="M599.1 412.2h-3.3v3.3h-3.3v3.3h-3.3v3.3H586M596.2 418.3h1.5v1.5l-.7-.7-2.9 2.9 2.9-2.9z"/></g></g><g stroke="#000" stroke-miterlimit="10"><path fill="#efefef" d="M234.8 449.4v-18.2h31.1v9.1h-19.1v9.1z"/><g fill="none"><path d="M253.6 432.9h-2v1.9h-1.9v2h-1.9v1.9h-2M251.8 436.5h.9v.9l-.4-.5-1.7 1.7 1.7-1.7z"/></g></g><g stroke="#000" stroke-miterlimit="10"><path fill="#efefef" d="M497.8 119h8.9v43.2h-8.9z"/><g fill="none"><path d="M505.6 138.1H504v1.7h-1.7v1.6h-1.7v1.7H499M504.1 141.2h.8v.8l-.4-.4-1.4 1.4 1.4-1.4z"/></g></g><g stroke="#000" stroke-miterlimit="10"><path fill="#e5e4e4" d="M506.7 119h8.9v43.2h-8.9z"/><path fill="#e5e4e4" d="M514.5 138.2h-1.6v1.6h-1.7v1.7h-1.7v1.6h-1.6"/><g fill="none"><path d="M514.5 138.2h-1.7v1.6h-1.6v1.7h-1.6v1.6h-1.7M513.1 143.1h-.8v-.8l.4.4 1.5-1.4-1.5 1.4z"/></g></g><g stroke="#000" stroke-miterlimit="10"><path fill="#efefef" d="M185.8 378.1h18.9v41.5h-18.9z"/><g fill="none"><path d="M201.8 393.9h-3.3v3.3h-3.3v3.3H192v3.3h-3.3M198.3 403.7h-1.5v-1.6l.8.8 2.8-2.9-2.8 2.9z"/></g></g><path fill="#e5e4e4" stroke="#000" stroke-miterlimit="10" d="M860.2 349.9v49.5h-12.1v-36.9h-6.8v-12.6z"/><g fill="none" stroke="#000" stroke-miterlimit="10"><path d="M858.8 364.7h-2.4v2.4H854v2.4h-2.3v2.4h-2.4M856.7 369.1h1.1v1.1l-.6-.5-2 2.1 2-2.1z"/></g><g stroke="#000" stroke-miterlimit="10"><path fill="#efefef" d="M1129 468.6v-13.1h13.9v60.7h-11.5v-47.6z"/><g fill="none"><path d="M1142 475.6h-2.5v2.4h-2.4v2.4h-2.4v2.5h-2.4M1139.8 480.1h1.1v1.1l-.5-.6-2.2 2.2 2.2-2.2z"/></g></g><g stroke="#000" stroke-miterlimit="10"><path fill="#efefef" d="M1043.5 94.3h24.7v12.3h-24.7z"/><g fill="none"><path d="M1060.9 96.7h-2.5v2.5h-2.5v2.5h-2.5v2.5h-2.6M1058.7 101.3h1.1v1.2l-.5-.6-2.2 2.2 2.2-2.2z"/></g></g></g></svg>