<svg xmlns="http://www.w3.org/2000/svg" xml:space="preserve" viewBox="0 0 1000 1000"><g id="háttér" fill="#dbdbdb" stroke="#000" stroke-miterlimit="10"><path d="M815.95 337.89h-18.48 18.48V191.3h-79.63v189.44h79.63zM974.77 168.01h158.85v66.81H974.77z"/></g><g id="termek"><path id="I205_x3B_t.sz." fill="#fff" stroke="#000" stroke-miterlimit="10" d="M736.32 337.89h23.06v42.85h-23.06z"/><path id="N.WC" fill="#fff" stroke="#000" stroke-miterlimit="10" d="M759.38 353.85h13.11v26.89h-13.11z"/><path id="F.WC" fill="#fff" stroke="#000" stroke-miterlimit="10" d="M772.49 353.85h13.11v26.89h-13.11z"/><path id="I204_x3B_szaktanterem" fill="#fff" stroke="#000" stroke-miterlimit="10" d="M736.32 297.17h48.85v40.72h-48.85z"/><path id="I203_x3B_szaktanterem" fill="#fff" stroke="#000" stroke-miterlimit="10" d="M736.32 249.34h48.85v47.83h-48.85z"/><path id="I202_x3B_szaktanterem" fill="#fff" stroke="#000" stroke-miterlimit="10" d="M736.32 191.3h48.85v58.04h-48.85z"/><path id="I201_x3B_Szerver_szoba" fill="#fff" stroke="#000" stroke-miterlimit="10" d="M785.17 191.3h30.78v32.12h-30.78z"/><path id="H204_x3B_szaktanterem_1_" fill="#fff" stroke="#000" stroke-miterlimit="10" d="M1054.89 192.35h78.72v42.47h-78.72z"/><path id="F.WC_2_" fill="#fff" stroke="#000" stroke-miterlimit="10" d="M974.77 180.39h24.64v11.96h-24.64z"/><g id="H203_x3B_szaktanterem_2_"><path id="H203_x3B_szaktanterem_3_" fill="#fff" stroke="#000" stroke-miterlimit="10" d="M1011.77 192.35v12.36h24.78v-12.36h18.34v42.47h-80.12v-42.47h24.63v12.36-12.36z"/></g><path id="raktár_1_" fill="#fff" stroke="#000" stroke-miterlimit="10" d="M1011.77 192.35h24.79v12.36h-24.79z"/><path id="N.WC_2_" fill="#fff" stroke="#000" stroke-miterlimit="10" d="M974.77 168.01h24.64v12.38h-24.64z"/></g><g id="lépcsők" stroke-miterlimit="10"><g id="lépcső" stroke="#000"><path fill="#efefef" d="M797.47 380.74v-12.25h5.91v-18.3h12.57v30.55z"/><g fill="none"><path d="M814.61 360.68h-2.47v2.47h-2.48v2.47h-2.47v2.47h-2.47M811.97 367.98h-1.15v-1.15l.57.58 2.16-2.16-2.16 2.16z"/></g></g><path fill="#efefef" stroke="#000" d="M1079.32 168.15h54.3v12.17h-54.3z"/><g fill="none" stroke="#020203"><path d="M1112.19 169.94h-2.86v2.86h-2.86v2.86h-2.86v2.86h-2.86M1109.13 178.4h-1.32v-1.33l.66.66 2.5-2.5-2.5 2.5z"/></g></g></svg>